HIERARCHY
ROOT Hips
{
	OFFSET 0.00000 0.00000 0.00000
	CHANNELS 6 Xposition Yposition Zposition Zrotation Yrotation Xrotation 
	JOINT LHipJoint
	{
		OFFSET 0 0 0
		CHANNELS 3 Zrotation Yrotation Xrotation
		JOINT LeftUpLeg
		{
			OFFSET 1.46561 -1.72757 0.83774
			CHANNELS 3 Zrotation Yrotation Xrotation
			JOINT LeftLeg
			{
				OFFSET 2.48915 -6.83890 0.00000
				CHANNELS 3 Zrotation Yrotation Xrotation
				JOINT LeftFoot
				{
					OFFSET 2.60555 -7.15868 0.00000
					CHANNELS 3 Zrotation Yrotation Xrotation
					JOINT LeftToeBase
					{
						OFFSET 0.19248 -0.52884 2.26738
						CHANNELS 3 Zrotation Yrotation Xrotation
						End Site
						{
							OFFSET 0.00000 -0.00000 1.17015
						}
					}
				}
			}
		}
	}
	JOINT RHipJoint
	{
		OFFSET 0 0 0
		CHANNELS 3 Zrotation Yrotation Xrotation
		JOINT RightUpLeg
		{
			OFFSET -1.46918 -1.72757 0.83774
			CHANNELS 3 Zrotation Yrotation Xrotation
			JOINT RightLeg
			{
				OFFSET -2.49034 -6.84216 0.00000
				CHANNELS 3 Zrotation Yrotation Xrotation
				JOINT RightFoot
				{
					OFFSET -2.65971 -7.30750 0.00000
					CHANNELS 3 Zrotation Yrotation Xrotation
					JOINT RightToeBase
					{
						OFFSET -0.19227 -0.52827 2.30785
						CHANNELS 3 Zrotation Yrotation Xrotation
						End Site
						{
							OFFSET -0.00000 -0.00000 1.18972
						}
					}
				}
			}
		}
	}
	JOINT LowerBack
	{
		OFFSET 0 0 0
		CHANNELS 3 Zrotation Yrotation Xrotation
		JOINT Spine
		{
			OFFSET 0.02432 2.19909 -0.28000
			CHANNELS 3 Zrotation Yrotation Xrotation
			JOINT Spine1
			{
				OFFSET 0.03714 2.21816 -0.15261
				CHANNELS 3 Zrotation Yrotation Xrotation
				JOINT Neck
				{
					OFFSET 0 0 0
					CHANNELS 3 Zrotation Yrotation Xrotation
					JOINT Neck1
					{
						OFFSET -0.01896 1.56165 0.21681
						CHANNELS 3 Zrotation Yrotation Xrotation
						JOINT Head
						{
							OFFSET 0.02744 1.56009 0.06764
							CHANNELS 3 Zrotation Yrotation Xrotation
							End Site
							{
								OFFSET 0.01212 1.60574 0.00298
							}
						}
					}
				}
				JOINT LeftShoulder
				{
					OFFSET 0 0 0
					CHANNELS 3 Zrotation Yrotation Xrotation
					JOINT LeftArm
					{
						OFFSET 3.05595 1.48048 -0.60794
						CHANNELS 3 Zrotation Yrotation Xrotation
						JOINT LeftForeArm
						{
							OFFSET 5.20607 -0.00000 -0.00000
							CHANNELS 3 Zrotation Yrotation Xrotation
							JOINT LeftHand
							{
								OFFSET 3.39961 -0.00000 0.00000
								CHANNELS 3 Zrotation Yrotation Xrotation
								JOINT LeftFingerBase
								{
									OFFSET 0 0 0
									CHANNELS 3 Zrotation Yrotation Xrotation
									JOINT LeftHandIndex1
									{
										OFFSET 0.51969 -0.00000 0.00000
										CHANNELS 3 Zrotation Yrotation Xrotation
										End Site
										{
											OFFSET 0.41899 -0.00000 0.00000
										}
									}
								}
								JOINT LThumb
								{
									OFFSET 0 0 0
									CHANNELS 3 Zrotation Yrotation Xrotation
									End Site
									{
										OFFSET 0.42539 -0.00000 0.42539
									}
								}
							}
						}
					}
				}
				JOINT RightShoulder
				{
					OFFSET 0 0 0
					CHANNELS 3 Zrotation Yrotation Xrotation
					JOINT RightArm
					{
						OFFSET -2.99052 1.57608 -0.69102
						CHANNELS 3 Zrotation Yrotation Xrotation
						JOINT RightForeArm
						{
							OFFSET -5.32214 -0.00000 0.00000
							CHANNELS 3 Zrotation Yrotation Xrotation
							JOINT RightHand
							{
								OFFSET -3.51208 -0.00000 0.00000
								CHANNELS 3 Zrotation Yrotation Xrotation
								JOINT RightFingerBase
								{
									OFFSET 0 0 0
									CHANNELS 3 Zrotation Yrotation Xrotation
									JOINT RightHandIndex1
									{
										OFFSET -0.58668 -0.00000 0.00000
										CHANNELS 3 Zrotation Yrotation Xrotation
										End Site
										{
											OFFSET -0.47300 -0.00000 0.00000
										}
									}
								}
								JOINT RThumb
								{
									OFFSET 0 0 0
									CHANNELS 3 Zrotation Yrotation Xrotation
									End Site
									{
										OFFSET -0.48022 -0.00000 0.48022
									}
								}
							}
						}
					}
				}
			}
		}
	}
}
MOTION
Frames: 12
Frame Time: .0083333
0.3527 20.6546 -9.2520 0.1496 4.3946 9.3189 0.0000 0.0000 0.0000 -15.1525 -3.4181 -22.8857 5.2559 13.6663 41.9169 2.5375 9.2098 28.6793 0.1669 2.6322 7.2565 0.0000 0.0000 0.0000 16.8804 1.2684 -17.6447 -4.0014 -12.1623 36.3086 -1.4652 -18.1924 23.5249 -1.9412 -8.7425 24.9932 -2.2796 -1.3427 0.9314 2.3375 -1.8274 3.4904 3.6540 -1.0159 3.2204 -3.1259 -0.1060 -10.3858 0.5007 0.3853 26.0876 0.7557 -0.0663 9.9825 0.0000 0.0000 0.0000 -84.1988 -15.1784 37.4212 13.8117 -22.4649 -2.7557 -0.0000 0.0000 -20.7780 26.6311 -6.5141 -3.2559 -7.1250 0.0000 -0.0000 -0.0883 22.7004 0.0474 0.0000 0.0000 0.0000 83.5901 8.2044 18.1001 -15.1275 24.3235 -3.2783 0.0000 0.0000 30.2823 -20.1139 -23.8919 8.4369 7.1250 -0.0000 -0.0000 9.8164 -54.9664 -2.4199
0.3493 20.7776 -9.1662 0.1615 4.4011 8.9131 0.0000 0.0000 0.0000 -15.1517 -3.5607 -23.2506 5.4208 13.8426 42.6106 2.5034 9.1125 28.4809 0.1894 2.8028 7.7301 0.0000 0.0000 0.0000 16.8051 1.5686 -18.1210 -4.2327 -12.4637 37.3928 -1.4495 -17.9304 23.3436 -1.9548 -8.7712 25.0823 -2.3815 -1.3002 1.5345 2.3284 -1.7787 3.7058 3.7152 -0.9957 3.1033 -3.1451 -0.1503 -10.4603 0.5951 0.3056 26.1494 0.7835 -0.0949 10.0204 -0.0000 0.0000 0.0000 -84.1762 -15.2206 37.7373 13.8340 -22.4969 -2.7643 -0.0000 0.0000 -21.2250 26.3179 -6.5045 -3.2070 -7.1250 0.0000 -0.0000 -0.3180 22.7307 0.1704 -0.0000 0.0000 0.0000 83.7356 8.1769 17.8536 -15.0828 24.2613 -3.2599 0.0000 0.0000 30.4476 -20.1436 -23.9137 8.4574 7.1250 -0.0000 -0.0000 9.7949 -54.9943 -2.4212
0.3464 20.8893 -9.0813 0.1800 4.3851 8.4823 0.0000 0.0000 0.0000 -15.1752 -3.6663 -23.5431 5.5312 13.9581 43.0698 2.4358 8.9848 28.0837 0.1947 2.8417 7.8385 0.0000 0.0000 0.0000 16.7256 1.8098 -18.5819 -4.4458 -12.7312 38.3703 -1.3976 -17.5809 22.9073 -1.9400 -8.7399 24.9850 -2.4777 -1.2505 2.1994 2.3123 -1.7222 3.9252 3.7669 -0.9708 2.9547 -3.1573 -0.1866 -10.5265 0.6700 0.2402 26.2031 0.8048 -0.1182 10.0537 0.0000 -0.0000 0.0000 -84.1831 -15.2685 37.9090 13.8113 -22.4643 -2.7556 -0.0000 0.0000 -21.4594 26.0024 -6.4041 -3.1142 -7.1250 0.0000 -0.0000 -0.5462 22.8615 0.2911 0.0000 -0.0000 0.0000 83.9041 8.1792 17.5384 -15.0036 24.1511 -3.2274 0.0000 0.0000 30.6930 -20.1459 -23.9333 8.4648 7.1250 -0.0000 -0.0000 9.8008 -55.0147 -2.4276
0.3440 20.9899 -8.9965 0.1943 4.3533 8.0654 0.0000 0.0000 0.0000 -15.2037 -3.7460 -23.8087 5.5864 14.0152 43.2982 2.3472 8.8194 27.5543 0.1855 2.7738 7.6495 0.0000 0.0000 0.0000 16.6512 2.0009 -19.0667 -4.6376 -12.9637 39.2328 -1.3196 -17.0881 22.2512 -1.8881 -8.6289 24.6412 -2.5542 -1.1987 2.8804 2.2921 -1.6641 4.1339 3.8031 -0.9440 2.7857 -3.1499 -0.2127 -10.5944 0.7138 0.1934 26.2683 0.8141 -0.1347 10.0914 -0.0000 -0.0000 0.0000 -84.2150 -15.3111 37.9509 13.7463 -22.3709 -2.7308 -0.0000 0.0000 -21.4887 25.7112 -6.2152 -2.9841 -7.1250 0.0000 -0.0000 -0.7541 23.0880 0.3980 -0.0000 -0.0000 0.0000 84.0914 8.2043 17.1873 -14.8934 23.9974 -3.1824 0.0000 0.0000 30.9774 -20.1070 -23.9666 8.4582 7.1250 -0.0000 -0.0000 9.8554 -55.0408 -2.4476
0.3420 21.0797 -8.9113 0.2006 4.3169 7.7001 0.0000 0.0000 0.0000 -15.2280 -3.8161 -24.0920 5.5899 14.0188 43.3126 2.2517 8.6402 26.9737 0.1693 2.6508 7.3081 0.0000 0.0000 0.0000 16.5842 2.1584 -19.6127 -4.8063 -13.1623 39.9792 -1.2260 -16.5082 21.4480 -1.8079 -8.4539 24.1014 -2.6049 -1.1503 3.5308 2.2691 -1.6106 4.3215 3.8207 -0.9181 2.6120 -3.1211 -0.2294 -10.6630 0.7257 0.1635 26.3448 0.8104 -0.1449 10.1331 0.0000 -0.0000 0.0000 -84.2701 -15.3282 37.8727 13.6536 -22.2374 -2.6956 -0.0000 0.0000 -21.3396 25.4617 -5.9872 -2.8433 -7.1250 0.0000 -0.0000 -0.9314 23.3541 0.4859 0.0000 -0.0000 0.0000 84.2929 8.2481 16.8262 -14.7586 23.8087 -3.1278 0.0000 0.0000 31.2770 -20.0538 -24.0034 8.4463 7.1250 -0.0000 -0.0000 9.9262 -55.0678 -2.4719
0.3404 21.1590 -8.8253 0.1910 4.2711 7.4184 0.0000 0.0000 0.0000 -15.2376 -3.8798 -24.4371 5.5479 13.9755 43.1392 2.1520 8.4727 26.3545 0.1503 2.4983 6.8849 0.0000 0.0000 0.0000 16.5301 2.3135 -20.2477 -4.9506 -13.3279 40.6088 -1.1229 -15.9623 20.5677 -1.7243 -8.2664 23.5263 -2.6269 -1.1067 4.1153 2.2486 -1.5623 4.4754 3.8230 -0.8936 2.4405 -3.0887 -0.2367 -10.7211 0.7208 0.1501 26.4284 0.8022 -0.1493 10.1751 0.0000 -0.0000 0.0000 -84.3524 -15.3089 37.6734 13.5375 -22.0696 -2.6518 -0.0000 0.0000 -21.0442 25.2637 -5.7598 -2.7116 -7.1250 0.0000 -0.0000 -1.0716 23.6158 0.5527 0.0000 -0.0000 0.0000 84.4979 8.2944 16.4859 -14.6061 23.5945 -3.0665 0.0000 0.0000 31.5640 -19.9967 -24.0321 8.4299 7.1250 -0.0000 -0.0000 9.9975 -55.0856 -2.4943
0.3391 21.2275 -8.7386 0.1661 4.2337 7.2368 0.0000 0.0000 0.0000 -15.2299 -3.9475 -24.8705 5.4678 13.8920 42.8067 2.0495 8.3198 25.7037 0.1335 2.3553 6.4888 0.0000 0.0000 0.0000 16.4897 2.4760 -20.9857 -5.0684 -13.4604 41.1172 -1.0209 -15.5069 19.6947 -1.6447 -8.0830 22.9666 -2.6220 -1.0715 4.6174 2.2331 -1.5234 4.5951 3.8135 -0.8726 2.2802 -3.0592 -0.2413 -10.7721 0.7093 0.1428 26.5064 0.7927 -0.1518 10.2136 -0.0000 0.0000 0.0000 -84.4604 -15.2571 37.3738 13.4059 -21.8791 -2.6026 -0.0000 0.0000 -20.6580 25.1458 -5.5756 -2.6113 -7.1250 0.0000 -0.0000 -1.1544 23.8248 0.5898 -0.0000 0.0000 0.0000 84.7036 8.3491 16.1681 -14.4418 23.3627 -3.0011 0.0000 0.0000 31.8382 -19.9466 -24.0513 8.4135 7.1250 -0.0000 -0.0000 10.0576 -55.0951 -2.5119
0.3380 21.2851 -8.6513 0.1322 4.2104 7.1597 0.0000 0.0000 0.0000 -15.2124 -4.0259 -25.4009 5.3567 13.7746 42.3419 1.9428 8.1769 25.0091 0.1203 2.2365 6.1596 0.0000 0.0000 0.0000 16.4550 2.6547 -21.8205 -5.1562 -13.5576 41.4933 -0.9281 -15.1514 18.8924 -1.5774 -7.9239 22.4832 -2.5958 -1.0445 5.0272 2.2205 -1.4933 4.6823 3.7931 -0.8554 2.1383 -3.0324 -0.2441 -10.8239 0.6993 0.1379 26.5733 0.7844 -0.1531 10.2483 -0.0000 -0.0000 0.0000 -84.5889 -15.1746 36.9991 13.2619 -21.6697 -2.5492 -0.0000 0.0000 -20.2322 25.0973 -5.4432 -2.5440 -7.1250 0.0000 -0.0000 -1.1874 23.9732 0.6026 -0.0000 -0.0000 0.0000 84.9078 8.3952 15.8896 -14.2798 23.1333 -2.9372 0.0000 0.0000 32.0855 -19.9172 -24.0607 8.4033 7.1250 -0.0000 -0.0000 10.0920 -55.0989 -2.5215
0.3370 21.3312 -8.5637 0.0919 4.2035 7.1787 0.0000 0.0000 0.0000 -15.1877 -4.1146 -26.0269 5.2204 13.6278 41.7664 1.8348 8.0180 24.2882 0.1118 2.1558 5.9365 0.0000 0.0000 0.0000 16.4227 2.8590 -22.7325 -5.2093 -13.6157 41.7192 -0.8500 -14.8717 18.2009 -1.5258 -7.7994 22.1064 -2.5568 -1.0250 5.3568 2.2116 -1.4711 4.7426 3.7679 -0.8417 2.0140 -3.0257 -0.2534 -10.8688 0.7105 0.1222 26.6115 0.7857 -0.1587 10.2713 0.0000 -0.0000 0.0000 -84.7287 -15.0810 36.5859 13.1032 -21.4382 -2.4909 -0.0000 0.0000 -19.8272 25.1244 -5.3638 -2.5101 -7.1250 0.0000 -0.0000 -1.1654 24.0594 0.5892 0.0000 -0.0000 0.0000 85.1103 8.4380 15.6435 -14.1225 22.9096 -2.8756 0.0000 0.0000 32.3163 -19.9095 -24.0582 8.3990 7.1250 -0.0000 -0.0000 10.0988 -55.0948 -2.5222
0.3360 21.3658 -8.4758 0.0473 4.2051 7.2741 0.0000 0.0000 0.0000 -15.1598 -4.2046 -26.7274 5.0625 13.4539 41.0921 1.7295 7.8165 23.5666 0.1074 2.1128 5.8175 0.0000 0.0000 0.0000 16.3892 3.0924 -23.6864 -5.2219 -13.6294 41.7726 -0.7881 -14.6210 17.6274 -1.4871 -7.7042 21.8192 -2.5101 -1.0087 5.6202 2.2054 -1.4516 4.7848 3.7399 -0.8293 1.9080 -3.0195 -0.2661 -10.9385 0.7314 0.0999 26.6392 0.7896 -0.1661 10.2954 0.0000 0.0000 0.0000 -84.8766 -14.9815 36.1444 12.9331 -21.1892 -2.4291 -0.0000 0.0000 -19.4543 25.1728 -5.3287 -2.4992 -7.1250 0.0000 -0.0000 -1.1286 24.0958 0.5696 0.0000 0.0000 0.0000 85.3073 8.4640 15.4507 -13.9848 22.7129 -2.8222 0.0000 0.0000 32.5128 -19.9233 -24.0455 8.4011 7.1250 -0.0000 -0.0000 10.0791 -55.0847 -2.5147
0.3349 21.3883 -8.3877 0.0048 4.2131 7.4222 0.0000 0.0000 0.0000 -15.1371 -4.2932 -27.4728 4.8846 13.2526 40.3217 1.6335 7.5447 22.8918 0.1057 2.0966 5.7727 0.0000 0.0000 0.0000 16.3483 3.3493 -24.6447 -5.1888 -13.5934 41.6323 -0.7447 -14.3477 17.1801 -1.4572 -7.6299 21.5954 -2.4670 -0.9936 5.8403 2.1995 -1.4329 4.8167 3.7133 -0.8175 1.8157 -3.0174 -0.2833 -11.0336 0.7698 0.0683 26.6554 0.7994 -0.1761 10.3205 0.0000 -0.0000 0.0000 -85.0291 -14.8742 35.6848 12.7549 -20.9271 -2.3650 -0.0000 0.0000 -19.1087 25.2311 -5.3278 -2.5054 -7.1250 0.0000 -0.0000 -1.0852 24.0939 0.5477 0.0000 -0.0000 0.0000 85.4994 8.4754 15.3084 -13.8674 22.5448 -2.7771 0.0000 0.0000 32.6747 -19.9437 -24.0378 8.4078 7.1250 -0.0000 -0.0000 10.0547 -55.0809 -2.5076
0.3337 21.3990 -8.2990 -0.0319 4.2160 7.5945 0.0000 0.0000 0.0000 -15.1257 -4.3679 -28.2257 4.6864 13.0217 39.4498 1.5499 7.1883 22.2921 0.1048 2.0878 5.7482 0.0000 0.0000 0.0000 16.2964 3.6241 -25.5653 -5.1063 -13.5026 41.2801 -0.7194 -14.0223 16.8545 -1.4384 -7.5824 21.4528 -2.4356 -0.9751 6.0418 2.1926 -1.4097 4.8443 3.6917 -0.8037 1.7294 -3.0207 -0.3040 -11.1510 0.8265 0.0288 26.6648 0.8156 -0.1881 10.3475 -0.0000 0.0000 0.0000 -85.1835 -14.7577 35.2220 12.5696 -20.6534 -2.2993 -0.0000 0.0000 -18.7814 25.2886 -5.3452 -2.5201 -7.1250 0.0000 -0.0000 -1.0428 24.0720 0.5268 -0.0000 0.0000 0.0000 85.6865 8.4761 15.2043 -13.7621 22.3936 -2.7368 0.0000 0.0000 32.8088 -19.9794 -24.0320 8.4220 7.1250 -0.0000 -0.0000 10.0153 -55.0820 -2.4980
